<?xml version="1.0" standalone="no"?>
<!DOCTYPE svg PUBLIC "-//W3C//DTD SVG 20010904//EN"
 "http://www.w3.org/TR/2001/REC-SVG-20010904/DTD/svg10.dtd">
<svg version="1.0" xmlns="http://www.w3.org/2000/svg"
 width="858.000000pt" height="858.000000pt" viewBox="0 0 858.000000 858.000000"
 preserveAspectRatio="xMidYMid meet">
<metadata>
Created by potrace 1.14, written by Peter Selinger 2001-2017
</metadata>
<g transform="translate(0.000000,858.000000) scale(0.100000,-0.100000)"
fill="#000000" stroke="none">
<path d="M4445 8335 c-49 -7 -110 -18 -135 -23 -25 -5 -70 -15 -100 -21 -140
-29 -276 -83 -363 -143 -34 -24 -180 -194 -304 -354 -50 -66 -143 -174 -207
-242 -63 -67 -141 -156 -172 -198 -31 -42 -79 -100 -105 -128 -46 -51 -51 -53
-121 -64 -40 -6 -125 -15 -188 -21 -190 -16 -319 -82 -450 -229 -128 -142
-216 -218 -333 -284 -40 -23 -100 -65 -135 -94 -34 -29 -101 -72 -148 -95 -98
-47 -171 -111 -363 -320 -80 -87 -126 -147 -148 -192 -34 -67 -41 -93 -23 -82
6 3 10 14 10 24 0 36 71 126 234 296 173 179 225 222 356 290 45 23 91 56 114
83 27 30 67 57 124 85 94 46 206 141 316 268 81 94 154 152 233 184 74 30 247
65 321 65 31 0 83 6 115 12 64 14 59 9 190 177 23 30 89 105 147 167 150 160
322 362 398 467 13 18 36 46 51 62 15 17 35 40 43 52 28 43 169 133 207 133 5
0 22 6 38 14 27 14 49 21 153 46 45 11 128 23 270 40 105 12 307 12 371 -1 30
-6 74 -12 99 -14 173 -11 191 -15 282 -61 27 -13 57 -24 67 -24 11 0 23 -4 26
-10 3 -5 14 -10 24 -10 21 0 78 -27 86 -41 4 -5 14 -9 24 -9 10 0 51 -22 92
-48 41 -27 89 -55 107 -63 17 -8 32 -17 32 -21 0 -5 6 -8 14 -8 8 0 23 -10 33
-23 10 -13 30 -31 46 -41 15 -10 60 -60 101 -110 40 -50 83 -100 96 -111 39
-35 50 -72 59 -188 5 -63 14 -124 21 -137 7 -13 16 -77 21 -143 9 -133 23
-183 57 -211 41 -33 89 -89 139 -161 58 -84 67 -103 88 -177 9 -32 21 -60 26
-63 5 -4 9 -21 9 -40 0 -32 1 -33 48 -38 102 -12 189 -27 222 -38 19 -6 58
-15 85 -19 28 -5 79 -13 115 -19 100 -16 137 -27 206 -61 75 -37 164 -115 211
-185 18 -27 49 -70 68 -95 19 -25 35 -49 35 -55 0 -5 9 -28 19 -50 10 -22 19
-44 21 -50 1 -5 6 -20 11 -33 41 -107 79 -457 71 -647 -3 -70 21 -178 48 -212
10 -13 45 -41 78 -62 107 -70 127 -118 126 -303 0 -125 -3 -141 -25 -185 -37
-72 -101 -101 -263 -117 -133 -14 -146 -18 -146 -44 0 -9 -8 -37 -16 -62 -25
-68 -33 -104 -55 -240 -26 -165 -26 -166 -40 -230 -6 -30 -13 -89 -14 -130 -3
-59 -2 -66 5 -35 4 22 15 69 24 105 28 110 34 141 52 265 19 140 56 280 81
308 25 28 57 37 150 47 130 14 204 54 246 135 17 32 22 64 25 164 3 78 0 144
-8 179 -13 57 -18 63 -169 202 -42 39 -50 53 -61 105 -7 33 -12 87 -11 120 1
67 -15 278 -30 400 -19 145 -70 322 -117 405 -37 65 -123 179 -168 222 -79 75
-235 147 -359 164 -51 8 -285 51 -346 65 -64 14 -101 54 -129 136 -12 38 -29
82 -38 98 -26 53 -105 158 -167 223 -32 35 -65 76 -71 92 -7 15 -15 70 -19
122 -10 134 -42 357 -60 409 -34 100 -248 322 -401 416 -115 71 -219 124 -288
147 -26 9 -69 26 -93 37 -156 71 -582 116 -798 84z"/>
<path d="M4455 8050 c-96 -11 -170 -26 -248 -51 -109 -36 -150 -63 -212 -141
-140 -173 -331 -391 -523 -595 -69 -73 -143 -159 -166 -192 -22 -33 -56 -80
-75 -104 l-33 -44 -99 -12 c-55 -6 -116 -11 -136 -11 -21 0 -82 -7 -138 -16
-130 -21 -212 -59 -262 -122 -21 -25 -100 -108 -176 -184 l-138 -137 -85 -27
c-119 -38 -119 -38 -123 -126 -1 -26 -4 -28 -40 -28 -24 0 -65 -13 -109 -35
-61 -31 -103 -67 -302 -265 -205 -202 -231 -232 -228 -257 5 -41 40 -50 138
-34 45 8 84 11 87 7 11 -11 -37 -119 -104 -230 -80 -134 -143 -253 -167 -321
-57 -155 -107 -260 -174 -364 -103 -159 -143 -268 -112 -306 15 -18 105 -20
235 -4 180 22 296 64 381 137 65 55 407 455 471 550 30 45 58 82 60 82 3 0 2
-15 -1 -32 -26 -123 -56 -324 -56 -379 0 -87 20 -150 96 -299 57 -113 158
-350 152 -355 -2 -1 -80 -41 -174 -89 -176 -88 -266 -149 -310 -208 -120 -160
-160 -236 -193 -363 -44 -168 -38 -342 20 -563 54 -206 111 -336 329 -737 214
-395 276 -600 273 -910 -1 -130 -6 -183 -27 -285 -14 -69 -26 -148 -26 -175 0
-94 58 -170 149 -195 50 -14 102 -13 229 5 81 11 121 13 161 5 68 -13 127 -13
151 0 49 26 53 156 10 355 -17 77 -37 169 -45 205 -27 120 -38 286 -31 495 7
216 21 302 59 363 37 58 52 67 70 42 8 -11 77 -65 153 -120 330 -236 524 -320
774 -336 207 -14 510 71 825 228 166 84 256 180 453 483 137 210 281 372 359
406 57 24 172 54 179 46 4 -3 -12 -59 -34 -124 -62 -184 -92 -348 -127 -693
-17 -169 -41 -330 -65 -440 -21 -93 -58 -219 -69 -235 -4 -5 -16 -32 -26 -59
-10 -27 -38 -78 -62 -114 -99 -144 -145 -258 -163 -405 -14 -111 -9 -170 16
-198 22 -25 98 -26 165 -2 49 18 49 18 65 -5 32 -46 94 -82 141 -82 120 0 202
104 262 332 33 125 75 258 123 388 52 145 123 297 206 444 34 60 62 110 62
112 0 2 34 54 76 116 84 125 190 258 287 364 52 56 167 220 167 238 0 3 13 27
29 55 160 271 194 589 95 899 -15 48 -45 120 -66 161 -21 40 -38 78 -38 83 0
5 14 21 30 35 17 14 46 57 65 97 32 66 70 230 137 581 16 87 71 266 100 331
13 29 27 30 109 5 129 -39 235 -35 259 9 28 52 -14 121 -83 135 -48 11 -94 50
-122 105 -32 63 -51 190 -70 470 -20 297 -48 422 -127 568 -111 206 -246 283
-446 254 -61 -8 -65 -8 -98 19 -62 49 -112 62 -211 55 -48 -3 -104 -7 -123 -9
-32 -2 -34 0 -43 38 -24 109 -62 226 -99 303 -48 99 -142 202 -221 241 -27 13
-50 28 -52 35 -2 6 -9 88 -15 181 -24 372 -26 395 -48 418 -10 12 -23 29 -28
38 -18 32 -134 155 -185 194 -28 22 -57 45 -63 52 -25 23 -126 84 -206 122
-85 42 -186 76 -330 112 -97 24 -338 34 -475 19z m-65 -940 c80 -17 179 -37
220 -46 204 -39 275 -57 300 -74 17 -12 16 -12 -140 24 -271 61 -493 89 -725
89 -304 1 -541 -54 -642 -149 -24 -23 -46 -34 -65 -34 -38 0 -29 16 35 65 105
80 256 138 404 155 43 5 166 7 273 5 173 -3 211 -7 340 -35z m-160 -165 c30
-8 98 -26 150 -40 91 -25 99 -26 185 -14 134 18 265 22 310 9 55 -15 145 -51
145 -58 0 -2 -11 -15 -25 -28 -14 -13 -25 -34 -25 -47 0 -51 51 -59 101 -16
67 58 187 80 444 82 200 2 213 0 295 -36 70 -32 148 -118 195 -215 62 -130 99
-324 65 -343 -92 -52 -135 -63 -255 -63 l-120 -1 -92 63 c-204 139 -381 193
-674 208 -217 11 -389 -15 -739 -112 -226 -63 -365 -75 -531 -45 -97 17 -142
31 -265 87 -150 66 -229 96 -294 109 -19 4 -39 11 -45 15 -5 4 -54 15 -108 25
-96 17 -236 17 -381 -1 -26 -3 -47 -2 -45 2 39 89 102 176 161 220 15 12 100
39 153 48 138 26 310 37 535 34 218 -3 251 -1 300 16 30 10 59 22 65 27 5 5
15 9 23 9 8 0 28 6 45 14 132 59 314 81 427 51z m915 -46 c15 -15 -17 -10 -45
7 l-25 15 30 -6 c17 -4 34 -11 40 -16z m-2220 -465 c49 -8 96 -19 105 -24 21
-13 7 -12 -90 5 -121 21 -280 20 -356 -4 -98 -29 -196 -101 -252 -183 -41 -61
-58 -101 -83 -203 -18 -76 -21 -108 -16 -210 6 -143 25 -221 80 -335 51 -105
151 -211 243 -258 117 -59 316 -78 456 -42 297 74 536 334 578 625 30 210 1
293 -139 396 -73 55 -261 151 -331 170 -25 6 -40 14 -33 16 19 7 148 -40 280
-100 142 -66 160 -71 288 -93 168 -28 336 -11 588 60 48 13 84 20 81 15 -3 -5
-12 -9 -20 -9 -32 0 -169 -83 -228 -138 -66 -61 -85 -316 -36 -486 38 -132
118 -259 218 -342 96 -79 272 -152 424 -174 l53 -8 -49 -1 c-119 -3 -258 44
-384 131 -72 49 -164 147 -201 213 -18 33 -39 67 -46 75 -49 56 -115 335 -115
485 0 63 -15 76 -93 82 -41 4 -77 1 -95 -6 -27 -12 -30 -17 -36 -81 -7 -67
-40 -200 -67 -270 -20 -51 -115 -216 -146 -253 -113 -134 -262 -250 -383 -295
-127 -48 -164 -55 -280 -55 -101 -1 -124 2 -188 26 -131 48 -245 136 -327 252
-94 133 -125 265 -125 527 0 155 -2 170 -20 188 -11 11 -27 20 -35 20 -11 0
-15 12 -15 49 0 96 6 107 69 129 54 19 133 43 255 77 153 42 332 54 471 29z
m2175 -100 c212 -32 320 -78 510 -216 l45 -33 145 0 145 0 85 38 c151 69 220
90 305 94 85 5 155 -14 155 -41 0 -7 -23 -35 -51 -61 -47 -44 -51 -46 -68 -31
-10 9 -46 22 -80 28 -74 14 -136 2 -225 -43 -107 -55 -157 -68 -353 -93 -196
-26 -261 -45 -281 -84 -5 -9 -15 -64 -22 -122 -45 -378 -177 -582 -417 -644
-34 -9 -87 -15 -119 -15 l-59 1 60 9 c149 22 282 91 353 184 103 136 146 304
147 575 0 139 -1 147 -27 196 -85 162 -316 247 -667 248 -167 0 -168 13 -1 24
137 10 299 4 420 -14z m-2200 -19 c161 -25 303 -76 398 -143 16 -12 34 -22 39
-22 17 0 123 -91 123 -105 0 -8 6 -15 14 -15 21 0 31 -84 18 -150 -6 -30 -8
-67 -5 -82 3 -16 1 -28 -5 -28 -5 0 -13 -17 -17 -37 -23 -123 -194 -327 -330
-394 -27 -13 -57 -30 -65 -36 -9 -7 -38 -15 -65 -18 -27 -4 -56 -9 -64 -13
-21 -9 -141 -6 -216 5 -33 5 -82 21 -110 35 -61 32 -161 120 -171 151 -4 12
-16 34 -27 49 -20 27 -51 104 -68 168 -5 19 -11 85 -14 146 -4 97 -2 122 19
194 23 79 58 141 115 204 87 96 218 123 431 91z m1607 -1 c-3 -3 -12 -4 -19
-1 -8 3 -5 6 6 6 11 1 17 -2 13 -5z m373 -103 c146 -16 249 -53 321 -118 70
-64 82 -99 76 -227 -7 -142 -24 -269 -42 -321 -33 -98 -80 -175 -107 -175 -4
0 -8 -7 -8 -15 0 -21 -30 -48 -86 -78 -75 -39 -111 -48 -219 -53 -146 -7 -298
29 -420 102 -90 53 -208 188 -230 266 -4 12 -15 41 -24 63 -21 46 -26 95 -24
211 2 113 17 161 65 207 40 38 137 90 193 103 17 4 35 11 41 15 6 5 57 13 113
17 56 5 105 12 109 17 7 7 76 3 242 -14z m-2838 -93 c3 -38 7 -45 36 -57 l32
-15 0 -145 c0 -150 8 -217 35 -331 27 -109 28 -117 9 -167 -42 -110 -169 -297
-295 -433 -28 -30 -84 -95 -124 -145 -141 -174 -215 -230 -341 -258 -73 -17
-264 -40 -271 -33 -7 7 31 80 69 133 21 29 38 57 38 63 0 5 3 10 8 10 12 0 97
173 131 270 34 94 113 258 159 328 136 211 195 388 145 437 -16 16 -34 16
-113 -2 -14 -3 -21 -2 -17 3 125 133 323 326 360 351 37 25 60 33 92 33 l44 0
3 -42z m4775 17 c72 -21 152 -106 211 -220 76 -149 101 -279 122 -639 12 -205
15 -230 36 -306 25 -87 71 -155 129 -191 39 -24 15 -24 -61 0 -32 11 -93 30
-134 42 -141 42 -146 51 -220 364 -17 72 -35 146 -40 165 -5 19 -14 55 -20 80
-6 25 -15 54 -19 65 -5 11 -19 52 -31 90 -13 39 -31 82 -41 97 -11 14 -19 29
-19 32 0 4 -10 20 -22 36 -25 34 -67 40 -89 14 -11 -14 -10 -22 11 -58 60
-105 86 -169 122 -306 5 -19 14 -51 19 -70 6 -19 16 -62 24 -95 18 -81 61
-251 75 -300 28 -94 75 -151 145 -176 19 -7 35 -18 35 -24 0 -5 -14 -48 -31
-95 -17 -47 -37 -110 -45 -140 -23 -95 -65 -283 -74 -335 -46 -253 -79 -362
-128 -417 -21 -24 -35 -22 -52 6 -28 45 -155 171 -230 227 -50 38 -219 133
-259 147 -19 7 -62 12 -96 12 -57 0 -63 2 -69 23 -13 50 -6 156 24 347 26 163
32 221 35 305 1 50 10 124 18 165 30 140 60 386 67 540 1 44 2 44 30 -45 25
-77 29 -108 31 -210 1 -123 12 -165 44 -165 8 0 23 8 34 19 17 17 19 44 25
322 4 167 10 349 14 404 l7 100 76 73 c42 40 88 81 102 92 49 39 159 50 244
25z m-513 -118 c14 -11 16 -19 7 -57 -5 -25 -12 -92 -16 -148 -4 -57 -11 -100
-15 -95 -4 4 -13 35 -20 68 -7 33 -19 86 -26 118 -8 32 -14 74 -14 93 0 32 2
34 33 34 18 0 41 -6 51 -13z m-2445 -110 c26 -204 63 -327 136 -450 22 -38 46
-80 54 -95 8 -15 46 -59 85 -98 79 -79 214 -163 336 -210 74 -28 77 -29 295
-28 213 0 223 1 297 26 254 90 386 304 437 717 5 40 13 77 18 82 11 11 152 35
258 44 104 9 205 36 280 73 33 17 61 30 62 29 9 -10 10 -179 2 -405 -18 -544
-81 -799 -316 -1290 -24 -51 -43 -100 -41 -109 2 -9 13 -22 25 -30 21 -14 24
-13 43 8 18 21 70 127 125 252 48 110 46 108 40 47 -3 -30 -8 -121 -11 -202
l-6 -148 -80 -40 c-223 -112 -397 -299 -576 -622 -37 -66 -42 -114 -12 -123
31 -10 53 9 90 82 19 37 38 73 42 78 17 21 58 86 58 92 0 13 135 175 204 245
119 119 227 185 353 215 91 21 123 14 243 -53 202 -112 359 -275 456 -474 64
-132 61 -123 89 -240 44 -186 31 -405 -35 -565 -79 -194 -178 -357 -291 -480
-299 -327 -552 -778 -679 -1215 -12 -41 -30 -102 -40 -135 -10 -33 -26 -89
-35 -125 -34 -124 -108 -220 -169 -220 -34 0 -84 61 -112 136 -19 53 -25 59
-52 62 -26 3 -32 -1 -38 -23 -3 -14 -4 -34 -1 -45 7 -26 -35 -60 -74 -60 -35
0 -38 13 -22 122 16 109 60 224 118 308 85 124 166 317 195 465 7 33 16 78 21
100 9 45 44 306 54 405 10 111 45 351 61 430 15 72 56 214 74 255 62 142 111
277 105 294 -15 49 -77 29 -90 -30 -9 -39 -37 -55 -108 -64 -62 -7 -165 -40
-234 -74 -30 -15 -73 -58 -148 -149 -94 -112 -205 -263 -205 -278 0 -3 -5 -10
-10 -17 -6 -7 -45 -59 -87 -117 -97 -133 -230 -265 -308 -307 -33 -17 -112
-52 -175 -78 -575 -234 -839 -196 -1365 194 -89 66 -178 156 -209 211 -6 10
-31 54 -56 97 -39 66 -74 140 -111 228 -18 44 -51 143 -64 195 -7 30 -23 93
-35 140 -21 81 -36 159 -65 335 -55 335 -103 578 -136 690 -41 138 -70 230
-78 250 -5 11 -21 54 -36 95 -15 41 -63 149 -107 240 -108 222 -108 223 -68
445 18 99 37 209 42 245 5 36 11 66 13 68 2 2 21 -15 42 -39 34 -38 135 -119
147 -119 3 0 21 -10 39 -23 50 -34 181 -74 267 -82 76 -7 205 6 270 27 186 60
293 121 408 232 117 115 228 286 285 441 28 76 57 192 57 230 0 23 15 36 36
28 6 -2 17 -45 23 -96z m-1442 -1912 c36 -128 96 -417 108 -510 3 -27 10 -70
14 -95 5 -25 15 -79 22 -120 24 -150 68 -362 97 -470 23 -81 25 -90 74 -225
36 -100 114 -255 165 -327 18 -26 33 -52 33 -56 0 -5 -11 -19 -25 -32 -79 -75
-104 -180 -111 -485 -8 -295 -2 -345 75 -700 31 -141 38 -218 22 -244 -8 -12
-28 -10 -130 8 -67 11 -134 29 -149 38 -54 34 -82 67 -88 105 -7 44 -24 61
-55 56 -37 -5 -45 -30 -31 -94 8 -41 21 -67 44 -91 17 -18 29 -35 25 -39 -15
-16 -93 10 -124 41 -41 41 -42 60 -6 225 23 111 27 147 27 320 0 204 -10 283
-56 430 -48 152 -132 337 -248 545 -70 127 -230 443 -230 456 0 6 -6 25 -14
42 -89 199 -121 481 -77 682 20 89 75 217 112 258 11 12 41 48 65 79 25 32 64
71 87 87 70 48 320 172 341 169 14 -2 24 -17 33 -53z"/>
<path d="M1126 5776 c-4 -19 -6 -110 -5 -203 1 -158 0 -171 -23 -228 -45 -106
-177 -383 -207 -432 -16 -26 -47 -84 -67 -127 -36 -75 -38 -88 -47 -215 -9
-156 -5 -206 22 -259 24 -48 92 -109 128 -118 16 -3 44 -10 63 -15 54 -14 325
-10 415 5 165 29 306 90 428 186 95 74 115 75 147 4 24 -56 25 -82 3 -114
l-17 -25 22 19 c33 29 35 49 7 112 -45 102 -68 106 -157 28 -35 -30 -93 -71
-130 -90 -72 -37 -205 -84 -235 -84 -11 0 -23 -4 -29 -9 -19 -19 -363 -37
-414 -22 -19 5 -51 13 -71 16 -59 9 -117 54 -144 112 -23 47 -25 64 -25 185 0
190 8 213 148 456 28 51 52 96 52 102 0 6 11 31 24 58 25 48 94 202 115 258 7
17 12 53 13 80 1 126 -3 354 -6 354 -2 0 -7 -15 -10 -34z"/>
<path d="M1628 3991 c-104 -113 -173 -262 -219 -476 -18 -80 -18 -383 0 -505
22 -158 83 -357 159 -525 46 -101 187 -381 202 -400 21 -27 181 -359 204 -425
57 -157 67 -305 41 -570 -28 -277 -16 -456 36 -546 43 -77 126 -139 225 -172
87 -28 188 -33 474 -23 222 7 263 11 315 30 95 34 129 62 165 134 31 63 32 69
37 233 6 177 -5 308 -33 386 -17 50 -59 273 -69 369 -6 54 -4 68 10 83 20 19
47 14 85 -15 82 -63 303 -154 435 -179 33 -6 79 -16 102 -21 65 -14 328 -10
418 6 147 27 356 88 510 148 185 74 415 221 457 294 22 37 93 103 112 103 19
0 26 -22 27 -88 2 -45 4 -35 12 45 5 57 6 111 2 120 -5 16 -11 13 -36 -17 -17
-19 -43 -48 -57 -65 -15 -16 -41 -48 -57 -70 -16 -22 -41 -49 -54 -60 -13 -11
-38 -32 -55 -46 -129 -108 -414 -232 -706 -308 -47 -12 -102 -27 -123 -32 -20
-6 -41 -8 -46 -5 -5 3 -31 -1 -57 -9 -58 -18 -284 -21 -301 -4 -6 6 -28 12
-49 14 -89 9 -163 25 -224 48 -36 13 -74 27 -85 31 -42 14 -153 72 -237 123
-48 29 -93 53 -99 53 -16 0 -6 -197 17 -317 30 -163 56 -272 65 -275 6 -2 10
-82 11 -193 1 -279 0 -294 -28 -340 -13 -22 -26 -47 -29 -56 -9 -22 -98 -65
-180 -86 -59 -15 -113 -18 -355 -18 -314 0 -366 7 -454 64 -106 66 -144 119
-166 226 -23 112 -14 417 16 515 27 87 14 251 -33 428 -9 34 -20 65 -25 68 -4
3 -8 13 -8 23 0 17 -105 230 -272 551 -47 91 -103 203 -123 250 -21 47 -46
104 -56 127 -11 24 -19 48 -19 55 0 7 -13 54 -29 103 -48 154 -71 318 -71 510
0 74 4 154 10 177 5 24 17 79 26 123 31 149 96 282 189 390 28 33 55 66 59 73
16 27 -5 9 -66 -57z"/>
<path d="M7182 3610 c0 -14 2 -19 5 -12 2 6 2 18 0 25 -3 6 -5 1 -5 -13z"/>
<path d="M7196 3515 c3 -27 8 -95 10 -150 2 -55 11 -127 20 -160 12 -45 14
-79 9 -135 -4 -41 -7 -82 -7 -90 0 -8 -7 -67 -15 -130 -8 -63 -17 -142 -20
-175 -5 -60 -53 -185 -72 -185 -5 0 -13 -15 -16 -32 -4 -18 -11 -37 -14 -43
-4 -5 -14 -26 -21 -45 -20 -52 -123 -223 -175 -292 -25 -33 -78 -93 -118 -135
-40 -41 -80 -89 -89 -107 -9 -17 -35 -51 -57 -74 -23 -23 -41 -44 -41 -47 0
-3 -20 -36 -45 -74 -25 -38 -45 -73 -45 -79 0 -6 -9 -17 -19 -24 -30 -21 -98
-156 -126 -249 -14 -46 -36 -99 -49 -119 -44 -67 -56 -89 -71 -132 -8 -24 -15
-51 -15 -61 0 -11 -6 -33 -14 -50 -22 -48 -36 -107 -36 -152 1 -53 13 -31 33
60 24 105 64 222 102 295 19 36 54 116 79 178 24 62 69 150 99 195 30 45 68
105 84 132 38 64 168 231 246 315 125 135 202 255 311 484 45 93 73 168 87
230 42 185 61 447 39 541 -5 22 -16 92 -25 155 -9 63 -20 135 -25 160 l-9 45
5 -50z"/>
<path d="M5306 1740 c-29 -138 -106 -329 -181 -445 -134 -210 -185 -394 -185
-670 0 -148 13 -203 65 -271 32 -41 108 -82 179 -95 28 -5 71 -14 96 -20 25
-6 65 -13 90 -15 l45 -4 -50 15 c-27 8 -71 21 -97 30 -25 8 -53 12 -62 9 -25
-10 -127 35 -169 75 -76 71 -94 155 -78 373 6 90 15 177 21 193 5 17 17 57 26
90 25 85 53 146 123 262 90 150 134 255 171 402 12 46 19 88 17 95 -2 6 -7 -5
-11 -24z"/>
<path d="M6155 704 c-4 -10 -17 -41 -31 -69 -13 -27 -33 -79 -45 -115 -41
-126 -68 -169 -144 -225 -38 -29 -83 -57 -100 -63 l-30 -10 28 -1 c62 -2 184
109 230 209 42 93 110 281 103 287 -3 3 -8 -3 -11 -13z"/>
</g>
</svg>
